<svg width="847" height="847" viewBox="0 0 847 847" fill="none" xmlns="http://www.w3.org/2000/svg">
<rect width="847" height="847" rx="220" fill="#111111"/>
<path fill-rule="evenodd" clip-rule="evenodd" d="M376.574 144.795C379.586 145.031 379.002 145.007 379.002 145.007L381.002 145.507C381.002 145.507 382.002 146.007 383.502 146.507C384.241 146.754 384.271 146.767 384.333 146.795C384.397 146.823 384.496 146.866 385.436 147.195C387.246 147.827 394.038 150.965 400.53 154.166C407.021 157.368 412.695 159.988 413.137 159.988C413.581 159.988 415.377 157.068 417.13 153.5C422.016 143.554 429.345 139.235 433.511 143.848C434.425 144.86 436.283 148.527 437.64 151.996C440.617 159.611 442.205 161.485 447.762 163.95C456.742 167.93 467.391 180.782 474.518 196.239C476.394 200.309 480.178 210.252 482.927 218.334C485.676 226.417 488.812 234.278 489.896 235.804C496.079 244.507 499.608 266.383 498.543 289.403C498.013 300.866 498.182 304.258 499.465 307.883C500.329 310.324 502.001 317.492 503.181 323.81C505.089 334.03 505.339 339.044 505.446 369.26C505.552 399.211 505.774 403.755 507.33 407.719C515.364 428.188 517.848 439.519 517.868 455.78C517.877 462.999 517.369 466.015 513.007 484.635C508.916 502.104 506.612 507.684 500.908 513.939C493.15 522.446 484.748 526.098 467.245 528.571C459.406 529.679 449.955 530.585 446.243 530.585C440.807 530.585 437.453 531.355 429.033 534.535C418.652 538.455 401.799 543.553 372.603 551.601C362.4 554.414 358.398 555.436 357.609 557.619C357.076 559.095 358.012 561.102 359.494 564.553C361.546 569.332 361.68 569.434 366.72 569.963C369.545 570.26 383.9 570.979 398.621 571.561C448.172 573.522 471.151 577.719 489.913 588.234C506.095 597.303 512.907 609.819 512.881 630.436C512.867 641.509 511.308 648.224 506.492 657.947C495.104 680.933 471.269 696.635 439.59 702.017C424.459 704.588 398.772 704.343 385.388 701.5C359.16 695.928 338.7 682.946 330.914 666.937C328.256 661.471 328 660.018 328 650.434C328 640.6 328.208 639.501 331.231 633.346C333.009 629.729 336.801 624.387 339.661 621.476C348.588 612.386 365.78 602.505 379.413 598.627L385.81 596.807L371.811 596.349C359.329 595.94 357.337 595.626 353.422 593.455C346.05 589.364 342.498 580.203 342.468 565.198C342.452 556.902 344.009 551.941 347.273 549.898C348.279 549.269 358.932 546.127 370.945 542.918L392.787 537.083L383.454 536.307C370.946 535.266 365.354 532.488 356.385 522.863C348.608 514.517 340.917 500.181 337.483 487.632C327.466 451.019 332.185 406.011 351.092 357.839C357.043 342.677 368.85 318.104 375.43 307.186L380.678 298.477L380.452 288.918C380.251 280.429 381.66 270.294 384.978 256.35C385.355 254.77 384.347 253.595 380.44 251.058C377.677 249.264 373.317 245.333 370.751 242.322L366.084 236.848L366.764 226.306C367.48 215.202 367.409 215.052 363.135 218.731C362.176 219.557 361.39 219.767 361.39 219.197C361.39 218.628 362.906 217.003 364.76 215.586C366.88 213.965 368.289 211.92 368.56 210.069C368.961 207.329 368.829 207.191 366.618 208.033C365.313 208.529 363.449 209.364 362.474 209.887C360.149 211.134 354.821 212.092 355.995 211.051C356.495 210.608 359.492 209.22 362.653 207.969C367.888 205.895 370.139 204.355 369.215 203.475C369.023 203.292 365.838 203.716 362.138 204.419C358.437 205.121 355.41 205.341 355.41 204.908C355.41 204.475 358.595 203.55 362.49 202.853C368.588 201.761 369.714 201.229 370.612 199.016C374.087 190.46 377.667 183.329 380.417 179.493C385.091 172.968 384.22 170.214 373.734 158.388C369.061 153.118 365.459 148.585 365.728 148.315C365.998 148.045 367.936 149.759 370.034 152.125C372.133 154.492 375.314 158.016 377.103 159.956L380.356 163.484L376.805 154.993C374.851 150.323 373.163 146.053 373.053 145.504C372.94 144.94 374.475 144.632 376.574 144.795ZM475.806 621.862C468.245 614.876 452.544 608.976 433.665 606.024C424.103 604.529 404.407 603.386 400.263 604.086C386.099 606.479 376.523 610.405 366.75 617.828C357.225 625.063 353.31 631.037 351.486 641.12C346.275 669.916 380.589 692.475 423.51 688.471C451.683 685.844 471.497 675.378 479.67 658.804C482.9 652.253 483.436 650.142 483.798 642.556C484.291 632.226 482.775 628.299 475.806 621.862ZM423.002 526.007C461.385 526.007 492.502 493.772 492.502 454.007C492.502 414.243 461.385 382.007 423.002 382.007C384.618 382.007 353.502 414.243 353.502 454.007C353.502 493.772 384.618 526.007 423.002 526.007Z" fill="url(#paint0_linear_221_6)"/>
<defs>
<linearGradient id="paint0_linear_221_6" x1="422.502" y1="203.507" x2="422.502" y2="489.507" gradientUnits="userSpaceOnUse">
<stop stop-color="#FF9B04"/>
<stop offset="1" stop-color="#F9BA0E"/>
</linearGradient>
</defs>
</svg>
