<svg width="174" height="100" viewBox="0 0 1035 625" fill="none" xmlns="http://www.w3.org/2000/svg">
<path d="M509.6 378.45C499.1 378.45 491.283 376.7 486.15 373.2C481.25 369.7 478.917 365.733 479.15 361.3H484.05C482.883 362.933 480.55 365.15 477.05 367.95C473.783 370.517 469.35 372.967 463.75 375.3C458.15 377.4 451.267 378.45 443.1 378.45C432.6 378.45 422.45 376.117 412.65 371.45C403.083 366.55 394.45 359.9 386.75 351.5C379.283 343.1 373.333 333.65 368.9 323.15C364.467 312.417 362.25 301.217 362.25 289.55C362.25 278.117 364.467 267.15 368.9 256.65C373.333 246.15 379.4 236.817 387.1 228.65C394.8 220.25 403.433 213.717 413 209.05C422.567 204.15 432.6 201.7 443.1 201.7C451.033 201.7 457.683 202.867 463.05 205.2C468.65 207.533 473.083 210.1 476.35 212.9C479.85 215.7 482.183 218.033 483.35 219.9H479.5C479.267 214.067 481.6 209.517 486.5 206.25C491.633 202.983 499.45 201.35 509.95 201.35C520.45 201.35 527.8 202.983 532 206.25C536.433 209.283 539.117 213.25 540.05 218.15C540.983 223.05 541.45 228.067 541.45 233.2V346.95C541.45 352.083 540.983 357.1 540.05 362C539.117 366.9 536.433 370.867 532 373.9C527.8 376.933 520.333 378.45 509.6 378.45ZM451.85 315.1C456.283 315.1 460.25 313.933 463.75 311.6C467.483 309.267 470.4 306.233 472.5 302.5C474.833 298.533 476 294.333 476 289.9C476 285.233 474.833 281.033 472.5 277.3C470.4 273.567 467.483 270.533 463.75 268.2C460.017 265.867 455.817 264.7 451.15 264.7C446.483 264.7 442.167 265.867 438.2 268.2C434.467 270.533 431.433 273.683 429.1 277.65C426.767 281.383 425.6 285.583 425.6 290.25C425.6 294.683 426.767 298.767 429.1 302.5C431.667 306.233 434.933 309.267 438.9 311.6C442.867 313.933 447.183 315.1 451.85 315.1ZM657.524 379.15C645.158 379.15 634.424 377.75 625.324 374.95C616.224 372.15 608.641 367.833 602.574 362C596.741 356.167 592.308 348.817 589.274 339.95C586.474 331.083 585.074 320.7 585.074 308.8V173C585.074 167.633 585.541 162.733 586.474 158.3C587.408 153.633 590.091 149.9 594.524 147.1C598.958 144.067 606.424 142.55 616.924 142.55C627.191 142.55 634.541 144.183 638.974 147.45C643.408 150.483 646.091 154.45 647.024 159.35C647.958 164.25 648.424 169.267 648.424 174.4V305.65C648.424 308.217 648.541 310.433 648.774 312.3C649.241 313.933 649.824 315.217 650.524 316.15C651.224 317.083 652.158 317.783 653.324 318.25C654.491 318.717 656.008 318.95 657.874 318.95C663.941 318.95 669.308 319.417 673.974 320.35C678.874 321.283 682.608 323.733 685.174 327.7C687.974 331.667 689.374 338.317 689.374 347.65C689.374 358.15 687.741 365.617 684.474 370.05C681.208 374.483 677.124 377.05 672.224 377.75C667.324 378.683 662.424 379.15 657.524 379.15ZM577.724 203.45H618.674L666.974 201.7C672.108 201.7 677.008 202.167 681.674 203.1C686.574 204.033 690.541 206.717 693.574 211.15C696.841 215.583 698.474 223.167 698.474 233.9C698.474 243.7 696.841 250.817 693.574 255.25C690.541 259.683 686.574 262.483 681.674 263.65C677.008 264.817 671.991 265.4 666.624 265.4L622.174 264.35H576.324C568.391 263.883 562.908 261.317 559.874 256.65C556.841 251.983 555.324 244.283 555.324 233.55C555.324 223.517 557.191 216.05 560.924 211.15C564.658 206.017 570.258 203.45 577.724 203.45ZM799.873 382.3C789.14 382.3 778.29 380.2 767.323 376C756.356 371.567 746.206 365.383 736.873 357.45C727.773 349.283 720.423 339.6 714.823 328.4C709.456 316.967 706.773 304.25 706.773 290.25C706.773 277.417 709.223 265.4 714.123 254.2C719.023 243 725.673 233.2 734.073 224.8C742.706 216.167 752.506 209.4 763.473 204.5C774.673 199.6 786.573 197.15 799.173 197.15C816.44 197.15 832.073 201.35 846.073 209.75C860.073 217.917 871.273 229 879.673 243C888.073 257 892.273 272.633 892.273 289.9C892.273 304.6 889.473 317.667 883.873 329.1C878.273 340.533 870.923 350.217 861.823 358.15C852.723 366.083 842.69 372.033 831.723 376C820.99 380.2 810.373 382.3 799.873 382.3ZM799.173 318.25C802.673 318.25 806.64 317.433 811.073 315.8C815.74 313.933 819.706 310.9 822.973 306.7C826.473 302.5 828.223 296.783 828.223 289.55C828.223 283.717 826.94 278.7 824.373 274.5C822.04 270.3 818.656 267.033 814.223 264.7C809.79 262.367 804.656 261.2 798.823 261.2C793.69 261.2 789.023 262.483 784.823 265.05C780.623 267.383 777.24 270.767 774.673 275.2C772.106 279.4 770.823 284.3 770.823 289.9C770.823 296.9 772.456 302.5 775.723 306.7C778.99 310.9 782.84 313.933 787.273 315.8C791.706 317.433 795.673 318.25 799.173 318.25Z" fill="url(#paint0_linear_2_221)"/>
<path d="M509.6 378.45C499.1 378.45 491.283 376.7 486.15 373.2C481.25 369.7 478.917 365.733 479.15 361.3H484.05C482.883 362.933 480.55 365.15 477.05 367.95C473.783 370.517 469.35 372.967 463.75 375.3C458.15 377.4 451.267 378.45 443.1 378.45C432.6 378.45 422.45 376.117 412.65 371.45C403.083 366.55 394.45 359.9 386.75 351.5C379.283 343.1 373.333 333.65 368.9 323.15C364.467 312.417 362.25 301.217 362.25 289.55C362.25 278.117 364.467 267.15 368.9 256.65C373.333 246.15 379.4 236.817 387.1 228.65C394.8 220.25 403.433 213.717 413 209.05C422.567 204.15 432.6 201.7 443.1 201.7C451.033 201.7 457.683 202.867 463.05 205.2C468.65 207.533 473.083 210.1 476.35 212.9C479.85 215.7 482.183 218.033 483.35 219.9H479.5C479.267 214.067 481.6 209.517 486.5 206.25C491.633 202.983 499.45 201.35 509.95 201.35C520.45 201.35 527.8 202.983 532 206.25C536.433 209.283 539.117 213.25 540.05 218.15C540.983 223.05 541.45 228.067 541.45 233.2V346.95C541.45 352.083 540.983 357.1 540.05 362C539.117 366.9 536.433 370.867 532 373.9C527.8 376.933 520.333 378.45 509.6 378.45ZM451.85 315.1C456.283 315.1 460.25 313.933 463.75 311.6C467.483 309.267 470.4 306.233 472.5 302.5C474.833 298.533 476 294.333 476 289.9C476 285.233 474.833 281.033 472.5 277.3C470.4 273.567 467.483 270.533 463.75 268.2C460.017 265.867 455.817 264.7 451.15 264.7C446.483 264.7 442.167 265.867 438.2 268.2C434.467 270.533 431.433 273.683 429.1 277.65C426.767 281.383 425.6 285.583 425.6 290.25C425.6 294.683 426.767 298.767 429.1 302.5C431.667 306.233 434.933 309.267 438.9 311.6C442.867 313.933 447.183 315.1 451.85 315.1ZM657.524 379.15C645.158 379.15 634.424 377.75 625.324 374.95C616.224 372.15 608.641 367.833 602.574 362C596.741 356.167 592.308 348.817 589.274 339.95C586.474 331.083 585.074 320.7 585.074 308.8V173C585.074 167.633 585.541 162.733 586.474 158.3C587.408 153.633 590.091 149.9 594.524 147.1C598.958 144.067 606.424 142.55 616.924 142.55C627.191 142.55 634.541 144.183 638.974 147.45C643.408 150.483 646.091 154.45 647.024 159.35C647.958 164.25 648.424 169.267 648.424 174.4V305.65C648.424 308.217 648.541 310.433 648.774 312.3C649.241 313.933 649.824 315.217 650.524 316.15C651.224 317.083 652.158 317.783 653.324 318.25C654.491 318.717 656.008 318.95 657.874 318.95C663.941 318.95 669.308 319.417 673.974 320.35C678.874 321.283 682.608 323.733 685.174 327.7C687.974 331.667 689.374 338.317 689.374 347.65C689.374 358.15 687.741 365.617 684.474 370.05C681.208 374.483 677.124 377.05 672.224 377.75C667.324 378.683 662.424 379.15 657.524 379.15ZM577.724 203.45H618.674L666.974 201.7C672.108 201.7 677.008 202.167 681.674 203.1C686.574 204.033 690.541 206.717 693.574 211.15C696.841 215.583 698.474 223.167 698.474 233.9C698.474 243.7 696.841 250.817 693.574 255.25C690.541 259.683 686.574 262.483 681.674 263.65C677.008 264.817 671.991 265.4 666.624 265.4L622.174 264.35H576.324C568.391 263.883 562.908 261.317 559.874 256.65C556.841 251.983 555.324 244.283 555.324 233.55C555.324 223.517 557.191 216.05 560.924 211.15C564.658 206.017 570.258 203.45 577.724 203.45ZM799.873 382.3C789.14 382.3 778.29 380.2 767.323 376C756.356 371.567 746.206 365.383 736.873 357.45C727.773 349.283 720.423 339.6 714.823 328.4C709.456 316.967 706.773 304.25 706.773 290.25C706.773 277.417 709.223 265.4 714.123 254.2C719.023 243 725.673 233.2 734.073 224.8C742.706 216.167 752.506 209.4 763.473 204.5C774.673 199.6 786.573 197.15 799.173 197.15C816.44 197.15 832.073 201.35 846.073 209.75C860.073 217.917 871.273 229 879.673 243C888.073 257 892.273 272.633 892.273 289.9C892.273 304.6 889.473 317.667 883.873 329.1C878.273 340.533 870.923 350.217 861.823 358.15C852.723 366.083 842.69 372.033 831.723 376C820.99 380.2 810.373 382.3 799.873 382.3ZM799.173 318.25C802.673 318.25 806.64 317.433 811.073 315.8C815.74 313.933 819.706 310.9 822.973 306.7C826.473 302.5 828.223 296.783 828.223 289.55C828.223 283.717 826.94 278.7 824.373 274.5C822.04 270.3 818.656 267.033 814.223 264.7C809.79 262.367 804.656 261.2 798.823 261.2C793.69 261.2 789.023 262.483 784.823 265.05C780.623 267.383 777.24 270.767 774.673 275.2C772.106 279.4 770.823 284.3 770.823 289.9C770.823 296.9 772.456 302.5 775.723 306.7C778.99 310.9 782.84 313.933 787.273 315.8C791.706 317.433 795.673 318.25 799.173 318.25Z" fill="url(#paint1_linear_2_221)"/>
<path d="M401.92 481V413.8H435.904C439.744 413.8 443.232 414.728 446.368 416.584C449.568 418.376 452.096 420.84 453.952 423.976C455.872 427.112 456.832 430.6 456.832 434.44C456.832 438.408 455.84 441.992 453.856 445.192C451.872 448.392 449.216 450.984 445.888 452.968C442.56 454.888 438.88 455.848 434.848 455.848H412.288V481H401.92ZM412.288 445.864H434.272C436.384 445.864 438.336 445.352 440.128 444.328C441.92 443.24 443.328 441.832 444.352 440.104C445.44 438.376 445.984 436.488 445.984 434.44C445.984 432.456 445.44 430.664 444.352 429.064C443.328 427.464 441.92 426.184 440.128 425.224C438.336 424.264 436.384 423.784 434.272 423.784H412.288V445.864ZM507.854 481V413.8H542.414C546.318 413.8 549.902 414.728 553.166 416.584C556.43 418.44 559.054 420.968 561.038 424.168C563.022 427.304 564.014 430.856 564.014 434.824C564.014 438.664 562.958 442.216 560.846 445.48C558.798 448.68 556.046 451.24 552.59 453.16C549.198 455.08 545.454 456.04 541.358 456.04H518.222V481H507.854ZM554.606 481L534.254 450.664L545.102 448.264L567.374 481.096L554.606 481ZM518.222 446.056H541.262C543.438 446.056 545.422 445.544 547.214 444.52C549.006 443.496 550.446 442.12 551.534 440.392C552.622 438.664 553.166 436.776 553.166 434.728C553.166 432.616 552.558 430.76 551.342 429.16C550.19 427.496 548.622 426.184 546.638 425.224C544.654 424.264 542.446 423.784 540.014 423.784H518.222V446.056ZM619.413 481V413.8H669.237V423.784H629.781V471.016H669.237V481H619.413ZM624.693 451.528V441.544H663.957V451.528H624.693ZM738.367 481V423.784H715.711V413.8H771.871V423.784H748.735V481H738.367ZM849.659 481.96C844.283 481.96 839.323 481.096 834.779 479.368C830.299 477.576 826.363 475.112 822.971 471.976C819.643 468.84 817.051 465.192 815.195 461.032C813.403 456.808 812.507 452.264 812.507 447.4C812.507 442.536 813.403 438.024 815.195 433.864C817.051 429.64 819.643 425.96 822.971 422.824C826.363 419.688 830.299 417.256 834.779 415.528C839.323 413.736 844.283 412.84 849.659 412.84C855.099 412.84 860.059 413.704 864.539 415.432C869.083 417.16 873.019 419.624 876.347 422.824C879.739 425.96 882.331 429.64 884.123 433.864C885.979 438.024 886.907 442.536 886.907 447.4C886.907 452.264 885.979 456.808 884.123 461.032C882.331 465.192 879.739 468.872 876.347 472.072C873.019 475.208 869.083 477.64 864.539 479.368C860.059 481.096 855.099 481.96 849.659 481.96ZM849.755 471.88C853.659 471.88 857.211 471.272 860.411 470.056C863.675 468.776 866.491 467.048 868.859 464.872C871.227 462.632 873.051 460.04 874.331 457.096C875.675 454.088 876.347 450.856 876.347 447.4C876.347 443.944 875.675 440.744 874.331 437.8C873.051 434.792 871.227 432.2 868.859 430.024C866.491 427.784 863.675 426.056 860.411 424.84C857.147 423.56 853.595 422.92 849.755 422.92C845.851 422.92 842.267 423.56 839.003 424.84C835.739 426.056 832.891 427.752 830.459 429.928C828.091 432.104 826.267 434.696 824.987 437.704C823.707 440.648 823.067 443.88 823.067 447.4C823.067 450.856 823.707 454.088 824.987 457.096C826.267 460.104 828.091 462.696 830.459 464.872C832.891 467.048 835.739 468.776 839.003 470.056C842.267 471.272 845.851 471.88 849.755 471.88Z" fill="url(#paint2_linear_2_221)"/>
<path fill-rule="evenodd" clip-rule="evenodd" d="M196.073 3.78794C199.084 4.02368 198.5 4 198.5 4L200.5 4.5C200.5 4.5 201.5 5 203 5.5C203.739 5.74641 203.769 5.75967 203.832 5.78722C203.896 5.81556 203.994 5.85904 204.935 6.18733C206.745 6.81965 213.536 9.95724 220.028 13.1588C226.52 16.3603 232.193 18.9804 232.636 18.9804C233.079 18.9804 234.875 16.0606 236.629 12.4925C241.515 2.54629 248.843 -1.77202 253.01 2.84097C253.924 3.85287 255.782 7.51988 257.138 10.9891C260.115 18.6038 261.703 20.4778 267.26 22.9421C276.24 26.9228 286.889 39.7748 294.016 55.232C295.892 59.3016 299.676 69.2448 302.425 77.327C305.174 85.4092 308.31 93.2707 309.395 94.797C315.577 103.5 319.107 125.376 318.041 148.396C317.511 159.858 317.68 163.251 318.963 166.876C319.827 169.317 321.5 176.484 322.679 182.802C324.588 193.022 324.838 198.037 324.944 228.253C325.05 258.203 325.272 262.747 326.828 266.711C334.862 287.181 337.347 298.512 337.367 314.773C337.376 321.992 336.867 325.008 332.506 343.628C328.414 361.097 326.111 366.677 320.406 372.932C312.649 381.438 304.246 385.091 286.743 387.564C278.905 388.672 269.454 389.578 265.741 389.578C260.306 389.578 256.952 390.348 248.531 393.527C238.151 397.448 221.297 402.546 192.102 410.594C181.898 413.407 177.896 414.429 177.108 416.611C176.574 418.087 177.511 420.094 178.992 423.546C181.044 428.325 181.179 428.426 186.218 428.956C189.043 429.253 203.399 429.972 218.119 430.554C267.671 432.515 290.649 436.711 309.411 447.227C325.593 456.296 332.405 468.811 332.379 489.429C332.365 500.502 330.806 507.217 325.99 516.939C314.602 539.925 290.768 555.627 259.089 561.009C243.958 563.581 218.27 563.336 204.887 560.493C178.658 554.921 158.198 541.939 150.413 525.929C147.755 520.463 147.498 519.011 147.498 509.426C147.498 499.593 147.707 498.493 150.73 492.339C152.507 488.722 156.299 483.38 159.159 480.469C168.087 471.379 185.278 461.497 198.911 457.62L205.308 455.8L191.309 455.341C178.827 454.933 176.835 454.619 172.921 452.447C165.548 448.357 161.997 439.196 161.967 424.191C161.95 415.895 163.508 410.933 166.771 408.891C167.778 408.261 178.431 405.12 190.443 401.91L212.286 396.076L202.952 395.299C190.444 394.259 184.853 391.481 175.883 381.856C168.107 373.51 160.415 359.174 156.981 346.624C146.964 310.012 151.684 265.004 170.59 216.831C176.541 201.67 188.348 177.097 194.929 166.178L200.176 157.47L199.95 147.91C199.75 139.422 201.158 129.287 204.476 115.343C204.853 113.762 203.845 112.588 199.938 110.05C197.175 108.256 192.815 104.326 190.249 101.315L185.582 95.8409L186.262 85.2983C186.979 74.1944 186.907 74.0446 182.633 77.7236C181.674 78.5497 180.889 78.7595 180.889 78.1901C180.889 77.6207 182.405 75.9955 184.259 74.579C186.379 72.9578 187.787 70.913 188.058 69.062C188.46 66.322 188.327 66.1831 186.116 67.0252C184.812 67.5217 182.947 68.3568 181.972 68.8792C179.648 70.1268 174.319 71.0848 175.493 70.0439C175.994 69.6004 178.99 68.2129 182.152 66.9613C187.386 64.8875 189.637 63.3472 188.713 62.4672C188.522 62.2844 185.336 62.7089 181.636 63.4111C177.935 64.1134 174.908 64.3331 174.908 63.9006C174.908 63.4681 178.094 62.5431 181.988 61.8458C188.086 60.754 189.212 60.2216 190.11 58.009C193.585 49.4523 197.165 42.3221 199.915 38.4852C204.59 31.9603 203.719 29.2063 193.232 17.3802C188.559 12.1109 184.957 7.57782 185.226 7.30712C185.497 7.03741 187.434 8.75155 189.532 11.118C191.631 13.4844 194.812 17.0086 196.601 18.9485L199.854 22.4766L196.303 13.9859C194.349 9.31593 192.661 5.04557 192.551 4.49617C192.439 3.93278 193.974 3.62412 196.073 3.78794ZM295.305 480.854C287.744 473.869 272.042 467.968 253.163 465.017C243.602 463.521 223.905 462.379 219.761 463.079C205.598 465.471 196.021 469.398 186.248 476.821C176.723 484.056 172.808 490.029 170.984 500.112C165.773 528.908 200.088 551.468 243.009 547.464C271.181 544.837 290.995 534.37 299.168 517.796C302.399 511.245 302.935 509.135 303.297 501.549C303.789 491.218 302.273 487.291 295.305 480.854ZM242.5 385C280.884 385 312 352.764 312 313C312 273.236 280.884 241 242.5 241C204.116 241 173 273.236 173 313C173 352.764 204.116 385 242.5 385Z" fill="url(#paint3_linear_2_221)"/>
<path d="M935.406 113.167C897.791 110.035 880.129 151.751 876 173C898.749 139.225 929.071 156.504 946.245 150.493C959.759 145.762 964.827 115.616 935.406 113.167Z" fill="url(#paint4_linear_2_221)"/>
<path d="M872.878 76.4433C841.331 97.1652 853.14 140.899 862.987 160.176C860.079 119.559 894.606 114.472 904.423 99.1512C912.148 87.0959 897.554 60.235 872.878 76.4433Z" fill="url(#paint5_linear_2_221)"/>
<path d="M961.105 199.712C942.052 167.13 897.763 176.648 878 185.48C918.714 184.688 921.999 219.433 936.788 230.033C948.425 238.375 976.008 225.198 961.105 199.712Z" fill="url(#paint6_linear_2_221)"/>
<path d="M42.4697 188.505C79.6683 182.109 100.897 222.128 106.861 242.937C81.2569 211.271 52.5548 231.126 34.9223 226.633C21.0476 223.098 13.3735 193.507 42.4697 188.505Z" fill="url(#paint7_linear_2_221)"/>
<path d="M101.561 146.475C134.793 164.371 126.839 208.967 118.707 229.028C118.067 188.312 83.2282 186.251 72.1141 171.844C63.3686 160.507 75.5672 132.477 101.561 146.475Z" fill="url(#paint8_linear_2_221)"/>
<path d="M24.4054 276.96C40.5485 242.842 85.4983 248.467 105.955 255.544C65.3271 258.301 65.081 293.2 51.2714 305.048C40.4048 314.371 11.7785 303.647 24.4054 276.96Z" fill="url(#paint9_linear_2_221)"/>
<defs>
<linearGradient id="paint0_linear_2_221" x1="696" y1="204.5" x2="696" y2="376" gradientUnits="userSpaceOnUse">
<stop offset="0.272793" stop-color="#FFC300"/>
<stop offset="1" stop-color="#FAFF00"/>
</linearGradient>
<linearGradient id="paint1_linear_2_221" x1="696" y1="229" x2="696" y2="342.5" gradientUnits="userSpaceOnUse">
<stop stop-color="#FF9B04"/>
<stop offset="1" stop-color="#F9BA0E"/>
</linearGradient>
<linearGradient id="paint2_linear_2_221" x1="642" y1="415.5" x2="642" y2="527" gradientUnits="userSpaceOnUse">
<stop stop-color="white"/>
<stop offset="1" stop-color="white" stop-opacity="0"/>
</linearGradient>
<linearGradient id="paint3_linear_2_221" x1="242" y1="62.5" x2="242" y2="348.5" gradientUnits="userSpaceOnUse">
<stop stop-color="#FF9B04"/>
<stop offset="1" stop-color="#F9BA0E"/>
</linearGradient>
<linearGradient id="paint4_linear_2_221" x1="922.258" y1="113" x2="922.258" y2="173" gradientUnits="userSpaceOnUse">
<stop stop-color="#FF9B04"/>
<stop offset="1" stop-color="#F9BA0E"/>
</linearGradient>
<linearGradient id="paint5_linear_2_221" x1="862.423" y1="84.4171" x2="899.41" y2="131.661" gradientUnits="userSpaceOnUse">
<stop stop-color="#FF9B04"/>
<stop offset="1" stop-color="#F9BA0E"/>
</linearGradient>
<linearGradient id="paint6_linear_2_221" x1="953.686" y1="188.856" x2="904.583" y2="223.337" gradientUnits="userSpaceOnUse">
<stop stop-color="#FF9B04"/>
<stop offset="1" stop-color="#F9BA0E"/>
</linearGradient>
<linearGradient id="paint7_linear_2_221" x1="55.5533" y1="187.193" x2="60.779" y2="246.966" gradientUnits="userSpaceOnUse">
<stop stop-color="#FF9B04"/>
<stop offset="1" stop-color="#F9BA0E"/>
</linearGradient>
<linearGradient id="paint8_linear_2_221" x1="112.671" y1="153.508" x2="79.9392" y2="203.793" gradientUnits="userSpaceOnUse">
<stop stop-color="#FF9B04"/>
<stop offset="1" stop-color="#F9BA0E"/>
</linearGradient>
<linearGradient id="paint9_linear_2_221" x1="30.851" y1="265.499" x2="82.7704" y2="295.572" gradientUnits="userSpaceOnUse">
<stop stop-color="#FF9B04"/>
<stop offset="1" stop-color="#F9BA0E"/>
</linearGradient>
</defs>
</svg>
